# xmcd CD database file generated by Grip 2.95
# 
# Track frame offsets:
#       150
#       36177
#       66680
#       85157
#       107152
#       135337
#       156737
#       184667
#       208337
#       235180
#       253142
# 
# Disc length: 3732 seconds
# 
# Revision: 3
# Processed by: cddbd v1.4b41PL1 Copyright (c) Steve Scherf et al.
# Submitted via: Grip 2.95
# 
DISCID=a50e920b
DTITLE=Chris Barber - New Orleans Blues Vol.1
DYEAR=1900
DGENRE=
TTITLE0=Texas Moaner Blues
TTITLE1=Immigration Blues
TTITLE2=Tishomingo Blues
TTITLE3=Meet Me Where They Play The Blues
TTITLE4=Basin Street Blues
TTITLE5=Saturday Afternoon Blues
TTITLE6=Royal Garden Blues
TTITLE7=St.James Infirmary
TTITLE8=West End Blues
TTITLE9=Blueas For A Black Girl
TTITLE10=Careless Love Blues
EXTD=
EXTT0=
EXTT1=
EXTT2=
EXTT3=
EXTT4=
EXTT5=
EXTT6=
EXTT7=
EXTT8=
EXTT9=
EXTT10=
PLAYORDER=
